<?xml version="1.0" encoding="UTF-8"?>
<svg id="Camada_2" data-name="Camada 2" xmlns="http://www.w3.org/2000/svg" viewBox="0 0 386.24 481">
  <defs>
    <style>
      .cls-1 {
        fill: #fff;
      }
    </style>
  </defs>
  <g id="Layer_1" data-name="Layer 1">
    <path class="cls-1" d="M328.33,2.89c-37.19-33.24-73.6,230.71-76.62,253.15-18.98-11.66-41.08-18.35-64.67-18.35-19.07,0-37.16,4.37-53.42,12.2C127.05,202.94,92.82-27.75,57.92,3.46c-117.68,105.2-25,273.3,7.99,324.84-4.45,13.62-6.87,28.23-6.87,43.43,0,74.03,57.31,109.27,128.01,109.27s128.01-35.24,128.01-109.27c0-10.65-1.19-21-3.43-30.93,17-24.17,148.24-220.32,16.72-337.9Zm-86.5,399.78c-10.92,0-28.36-23.66-28.36-35.1s20.02-37.79,30.94-37.79c7.88,0,18.71,13.73,24.13,25.68,2.09,4.6,3.37,8.94,3.37,12.12,0,11.43-19.16,35.1-30.08,35.1Z"/>
  </g>
</svg>